<svg id="Group_2608" data-name="Group 2608" xmlns="http://www.w3.org/2000/svg" xmlns:xlink="http://www.w3.org/1999/xlink" width="1366" height="768" viewBox="0 0 1366 768">
  <defs>
    <clipPath id="clip-path">
      <rect id="Rectangle_1993" data-name="Rectangle 1993" width="1366" height="768" fill="#f6f9fb" opacity="0.7"/>
    </clipPath>
    <linearGradient id="linear-gradient" x1="0.498" y1="0.551" x2="0.471" y2="1.267" gradientUnits="objectBoundingBox">
      <stop offset="0" stop-color="#fff" stop-opacity="0"/>
      <stop offset="1" stop-color="#59595b"/>
    </linearGradient>
    <linearGradient id="linear-gradient-2" x1="0.598" y1="0.828" x2="0.427" y2="0.255" xlink:href="#linear-gradient"/>
    <linearGradient id="linear-gradient-3" x1="0.531" y1="0.553" x2="0.381" y2="0.294" xlink:href="#linear-gradient"/>
    <linearGradient id="linear-gradient-4" x1="0.517" y1="0.678" x2="0.429" y2="-0.255" xlink:href="#linear-gradient"/>
    <linearGradient id="linear-gradient-5" x1="0.511" y1="0.551" x2="0.405" y2="0.069" gradientUnits="objectBoundingBox">
      <stop offset="0" stop-color="#fff" stop-opacity="0"/>
      <stop offset="1" stop-color="#fff"/>
    </linearGradient>
    <linearGradient id="linear-gradient-6" x1="0.487" y1="0.244" x2="0.506" y2="0.622" xlink:href="#linear-gradient"/>
    <linearGradient id="linear-gradient-7" x1="0.483" y1="0.184" x2="0.513" y2="0.744" xlink:href="#linear-gradient"/>
    <linearGradient id="linear-gradient-8" x1="0.502" y1="0.65" x2="0.508" y2="1.157" xlink:href="#linear-gradient"/>
    <linearGradient id="linear-gradient-9" x1="0" y1="0.5" x2="1" y2="0.5" xlink:href="#linear-gradient-5"/>
    <linearGradient id="linear-gradient-10" x1="0.453" y1="0.444" x2="0.16" y2="0.092" xlink:href="#linear-gradient"/>
    <linearGradient id="linear-gradient-11" x1="0.48" y1="0.385" x2="0.41" y2="-0.02" xlink:href="#linear-gradient"/>
    <linearGradient id="linear-gradient-12" x1="0.511" y1="0.541" x2="0.434" y2="0.247" xlink:href="#linear-gradient-5"/>
    <linearGradient id="linear-gradient-13" x1="0.484" y1="0.48" x2="0.167" y2="0.087" xlink:href="#linear-gradient"/>
    <linearGradient id="linear-gradient-14" x1="0.392" y1="0.288" x2="0.526" y2="0.551" xlink:href="#linear-gradient-5"/>
    <linearGradient id="linear-gradient-15" x1="0.409" y1="0.427" x2="0.182" y2="0.242" xlink:href="#linear-gradient"/>
    <linearGradient id="linear-gradient-16" x1="0.29" y1="0.386" x2="0.468" y2="0.483" xlink:href="#linear-gradient-5"/>
    <linearGradient id="linear-gradient-17" x1="0.379" y1="0.447" x2="-0.158" y2="0.21" xlink:href="#linear-gradient"/>
    <linearGradient id="linear-gradient-18" x1="0.152" y1="0.33" x2="0.496" y2="0.498" xlink:href="#linear-gradient-5"/>
    <linearGradient id="linear-gradient-19" x1="0.354" y1="0.293" x2="-0.011" y2="-0.228" xlink:href="#linear-gradient"/>
    <linearGradient id="linear-gradient-20" x1="0.464" y1="0.176" x2="0.478" y2="0.301" xlink:href="#linear-gradient-5"/>
  </defs>
  <g id="Mask_Group_4" data-name="Mask Group 4" clip-path="url(#clip-path)">
    <g id="Group_2598" data-name="Group 2598" transform="translate(-402.295)">
      <rect id="Rectangle_1987" data-name="Rectangle 1987" width="1767" height="1178" transform="translate(0.295)" fill="#f7fbfc"/>
      <rect id="Rectangle_1988" data-name="Rectangle 1988" width="1767" height="1178" transform="translate(0.295)" opacity="0.5" fill="url(#linear-gradient)" style="mix-blend-mode: multiply;isolation: isolate"/>
      <rect id="Rectangle_1989" data-name="Rectangle 1989" width="1767" height="1178" transform="translate(0.295)" opacity="0.5" fill="url(#linear-gradient-2)" style="mix-blend-mode: multiply;isolation: isolate"/>
      <g id="Group_2589" data-name="Group 2589">
        <path id="Path_8604" data-name="Path 8604" d="M1767.519,0V414.33c-85.477,58.611-197.09,85.053-302.741,92.382-153.444,10.629-310.423-8.083-459.39,30.213C819.139,584.79,663.6,719.262,557.711,879.777c-67,101.55-119.838,217.782-208.426,298.569H0V0Z" fill="#f7fbfc"/>
        <path id="Path_8605" data-name="Path 8605" d="M1767.519,0V414.33c-85.477,58.611-197.09,85.053-302.741,92.382-153.444,10.629-310.423-8.083-459.39,30.213C819.139,584.79,663.6,719.262,557.711,879.777c-67,101.55-119.838,217.782-208.426,298.569H0V0Z" opacity="0.5" fill="url(#linear-gradient-3)" style="mix-blend-mode: multiply;isolation: isolate"/>
        <path id="Path_8606" data-name="Path 8606" d="M1767.519,0V414.33c-85.477,58.611-197.09,85.053-302.741,92.382-153.444,10.629-310.423-8.083-459.39,30.213C819.139,584.79,663.6,719.262,557.711,879.777c-67,101.55-119.838,217.782-208.426,298.569H0V0Z" opacity="0.5" fill="url(#linear-gradient-4)" style="mix-blend-mode: multiply;isolation: isolate"/>
        <path id="Path_8607" data-name="Path 8607" d="M1570.975,173.03v6.552c-85.477,58.611-197.09,85.053-302.741,92.382-153.444,10.629-310.423-8.083-459.39,30.213C622.6,350.041,467.053,484.514,361.167,645.028c-67,101.55-119.838,217.782-208.426,298.569H144.87c91.864-80.952,145.479-199.824,213.823-303.4C464.579,479.659,620.121,345.21,806.37,297.345c148.966-38.3,305.946-19.584,459.366-30.213C1372.424,259.733,1485.192,232.843,1570.975,173.03Z" transform="translate(196.544 234.748)" fill="url(#linear-gradient-5)"/>
      </g>
      <g id="Group_2590" data-name="Group 2590" transform="translate(627.54 672.105)">
        <path id="Path_8608" data-name="Path 8608" d="M1406.259,285.19V791.431H266.28c5.09-84.959,21-173.028,75.791-237.531A244.569,244.569,0,0,1,384.4,514.661c1.673-1.249,3.347-2.451,5.043-3.606,78.195-54.416,185.5-65.752,283.086-57.315,10.228.872,20.456,1.932,30.661,3.111,4.383.495,8.767,1.037,13.15,1.579,104.449,13.08,208.449,37.448,312.969,27.361,4.383-.424,8.743-.9,13.1-1.461q6.363-.778,12.726-1.768C1189.82,462.083,1312.439,385.019,1406.259,285.19Z" transform="translate(-266.28 -285.19)" fill="#f7fbfc"/>
        <path id="Path_8609" data-name="Path 8609" d="M1406.259,285.19V791.431H266.28c5.09-84.959,21-173.028,75.791-237.531A244.569,244.569,0,0,1,384.4,514.661c1.673-1.249,3.347-2.451,5.043-3.606,78.195-54.416,185.5-65.752,283.086-57.315,10.228.872,20.456,1.932,30.661,3.111,4.383.495,8.767,1.037,13.15,1.579,104.449,13.08,208.449,37.448,312.969,27.361,4.383-.424,8.743-.9,13.1-1.461q6.363-.778,12.726-1.768C1189.82,462.083,1312.439,385.019,1406.259,285.19Z" transform="translate(-266.28 -285.19)" opacity="0.5" fill="url(#linear-gradient-6)" style="mix-blend-mode: multiply;isolation: isolate"/>
        <path id="Path_8610" data-name="Path 8610" d="M1406.259,285.19v3.841c-91.015,96.648-208.991,171.85-338.8,194.851-3.983.731-7.942,1.39-11.949,1.98q-12.8,1.944-25.711,3.205C920.875,499.6,812.538,472.688,703.659,460.151c-4.1-.495-8.2-.943-12.326-1.367q-9.156-.99-18.312-1.768c-95.446-8.225-200.2,2.427-277.925,53.8-1.768,1.155-3.512,2.357-5.255,3.559a245.98,245.98,0,0,0-47.275,42.8c-54.086,63.7-70.253,150.31-75.556,234.255h-.731c5.09-84.959,21-173.028,75.791-237.531A244.569,244.569,0,0,1,384.4,514.661c1.673-1.249,3.347-2.451,5.043-3.606,78.195-54.416,185.5-65.752,283.086-57.315,10.228.872,20.456,1.932,30.661,3.111,4.383.495,8.767,1.037,13.15,1.579,104.449,13.08,208.449,37.448,312.969,27.361,4.383-.424,8.743-.9,13.1-1.461q6.363-.778,12.726-1.768C1189.82,462.083,1312.439,385.019,1406.259,285.19Z" transform="translate(-266.28 -285.19)" fill="#fff"/>
      </g>
      <g id="Group_2591" data-name="Group 2591" transform="translate(794.771 804.528)">
        <path id="Path_8611" data-name="Path 8611" d="M1309.988,341.38V715.2H337.24c5.09-84.959,20.975-173.028,75.768-237.531a243.6,243.6,0,0,1,24.934-25.334c1.013-.872,2.027-1.768,3.064-2.64,42.8-36.317,96.766-57.15,154.057-67.142,3.936-.707,7.871-1.343,11.854-1.933,45.06-6.693,91.817-6.976,136.547-3.111,71.973,6.2,143.664,20.786,215.4,28.822,4.1.471,8.225.919,12.325,1.32,42.962,4.36,85.972,6.08,129.052,1.909a500.516,500.516,0,0,0,115.926-25.664c2.357-.825,4.713-1.65,7.046-2.5A582.1,582.1,0,0,0,1309.988,341.38Z" transform="translate(-337.24 -341.38)" fill="#f7fbfc"/>
        <path id="Path_8612" data-name="Path 8612" d="M1309.988,341.38V715.2H337.24c5.09-84.959,20.975-173.028,75.768-237.531a243.6,243.6,0,0,1,24.934-25.334c1.013-.872,2.027-1.768,3.064-2.64,42.8-36.317,96.766-57.15,154.057-67.142,3.936-.707,7.871-1.343,11.854-1.933,45.06-6.693,91.817-6.976,136.547-3.111,71.973,6.2,143.664,20.786,215.4,28.822,4.1.471,8.225.919,12.325,1.32,42.962,4.36,85.972,6.08,129.052,1.909a500.516,500.516,0,0,0,115.926-25.664c2.357-.825,4.713-1.65,7.046-2.5A582.1,582.1,0,0,0,1309.988,341.38Z" transform="translate(-337.24 -341.38)" opacity="0.5" fill="url(#linear-gradient-7)" style="mix-blend-mode: multiply;isolation: isolate"/>
        <path id="Path_8613" data-name="Path 8613" d="M1309.988,341.38v3.582a579.451,579.451,0,0,1-94.056,42.468q-3.465,1.2-6.929,2.333a497,497,0,0,1-108.266,23.072c-47.228,4.572-94.362,2.1-141.5-3.205q-6.539-.707-13.1-1.532c-67.307-8.248-134.614-21.469-202.181-27.314-40.535-3.488-82.767-3.582-123.891,1.414q-6.363.778-12.679,1.72c-60.331,8.932-117.6,29.341-162.895,66.577-1.037.848-2.1,1.72-3.111,2.616a241,241,0,0,0-27.88,27.833c-54.063,63.7-70.253,150.31-75.556,234.255h-.707c5.09-84.959,20.975-173.028,75.768-237.531a243.6,243.6,0,0,1,24.934-25.334c1.013-.872,2.027-1.768,3.064-2.64,42.8-36.317,96.766-57.15,154.057-67.142,3.936-.707,7.871-1.343,11.854-1.933,45.06-6.693,91.817-6.976,136.547-3.111,71.973,6.2,143.664,20.786,215.4,28.822,4.1.471,8.225.919,12.325,1.32,42.962,4.36,85.972,6.08,129.052,1.909a500.516,500.516,0,0,0,115.926-25.664c2.357-.825,4.713-1.65,7.046-2.5A582.1,582.1,0,0,0,1309.988,341.38Z" transform="translate(-337.24 -341.38)" fill="#fff"/>
      </g>
      <g id="Group_2592" data-name="Group 2592" transform="translate(457.528 765.194)">
        <path id="Path_8614" data-name="Path 8614" d="M1504.131,324.69V737.842H194.14c18.005-80.175,47.181-160.656,108.691-214.105,51.022-44.353,116.35-63.277,184.482-66.27,1.885-.094,3.771-.165,5.656-.236,47.464-1.461,96.129,4.643,142.179,15.106,1.155.259,2.333.518,3.488.8,2,.471,3.983.943,5.962,1.414,116.326,28.139,228.387,78.878,347.871,85.477,148.589,8.178,294.728-54.275,410.677-147.623.66-.519,1.3-1.061,1.956-1.579,1.744-1.414,3.488-2.828,5.208-4.289C1442.1,380.379,1472.693,351.768,1504.131,324.69Z" transform="translate(-194.14 -324.69)" fill="#f7fbfc"/>
        <path id="Path_8615" data-name="Path 8615" d="M1504.131,324.69V737.842H194.14c18.005-80.175,47.181-160.656,108.691-214.105,51.022-44.353,116.35-63.277,184.482-66.27,1.885-.094,3.771-.165,5.656-.236,47.464-1.461,96.129,4.643,142.179,15.106,1.155.259,2.333.518,3.488.8,2,.471,3.983.943,5.962,1.414,116.326,28.139,228.387,78.878,347.871,85.477,148.589,8.178,294.728-54.275,410.677-147.623.66-.519,1.3-1.061,1.956-1.579,1.744-1.414,3.488-2.828,5.208-4.289C1442.1,380.379,1472.693,351.768,1504.131,324.69Z" transform="translate(-194.14 -324.69)" opacity="0.5" fill="url(#linear-gradient-8)" style="mix-blend-mode: multiply;isolation: isolate"/>
        <path id="Path_8616" data-name="Path 8616" d="M1504.131,324.69v3.323c-29.105,25.075-57.48,51.494-86.773,76.027-2.4,2.027-4.831,4.054-7.282,6.033-1.65,1.367-3.3,2.734-4.973,4.077-116.255,94.221-263.219,157.427-412.633,149.2-119.484-6.575-231.545-57.315-347.871-85.477-3.017-.731-6.033-1.438-9.073-2.121-1.155-.283-2.286-.542-3.441-.778-46.851-10.44-96.318-16.285-144.371-14.187q-2.722.106-5.444.283c-66.317,3.676-129.689,22.742-179.439,65.987-60.638,52.719-89.861,131.692-107.936,210.783h-.754c18.005-80.175,47.181-160.656,108.691-214.105,51.022-44.353,116.35-63.277,184.482-66.27,1.885-.094,3.771-.165,5.656-.236,47.464-1.461,96.129,4.643,142.179,15.106,1.155.259,2.333.518,3.488.8,2,.471,3.983.943,5.962,1.414,116.326,28.139,228.387,78.878,347.871,85.477,148.589,8.178,294.728-54.275,410.677-147.623.66-.519,1.3-1.061,1.956-1.579,1.744-1.414,3.488-2.828,5.208-4.289C1442.1,380.379,1472.693,351.768,1504.131,324.69Z" transform="translate(-194.14 -324.69)" fill="url(#linear-gradient-9)"/>
      </g>
      <g id="Group_2593" data-name="Group 2593">
        <path id="Path_8617" data-name="Path 8617" d="M1767.519,0V156.6c-8.461,33.536-21.163,65.681-39.451,95.54-80.387,131.15-246.463,181.937-399.907,192.377-153.468,10.44-310.424-8.437-459.414,29.671-186.3,47.652-342.027,181.937-448.078,342.333-76.5,115.666-134.638,250.422-248.23,329.961a326.949,326.949,0,0,1-56.914,31.862H0V0Z" fill="#f7fbfc"/>
        <path id="Path_8618" data-name="Path 8618" d="M1767.519,0V156.6c-8.461,33.536-21.163,65.681-39.451,95.54-80.387,131.15-246.463,181.937-399.907,192.377-153.468,10.44-310.424-8.437-459.414,29.671-186.3,47.652-342.027,181.937-448.078,342.333-76.5,115.666-134.638,250.422-248.23,329.961a326.949,326.949,0,0,1-56.914,31.862H0V0Z" opacity="0.5" fill="url(#linear-gradient-10)" style="mix-blend-mode: multiply;isolation: isolate"/>
        <path id="Path_8619" data-name="Path 8619" d="M1767.519,0V156.6c-8.461,33.536-21.163,65.681-39.451,95.54-80.387,131.15-246.463,181.937-399.907,192.377-153.468,10.44-310.424-8.437-459.414,29.671-186.3,47.652-342.027,181.937-448.078,342.333-76.5,115.666-134.638,250.422-248.23,329.961a326.949,326.949,0,0,1-56.914,31.862H0V0Z" opacity="0.5" fill="url(#linear-gradient-11)" style="mix-blend-mode: multiply;isolation: isolate"/>
        <path id="Path_8620" data-name="Path 8620" d="M1711.081,63.36v7.282c-8.461,33.536-21.163,65.681-39.451,95.54-80.387,131.15-246.463,181.937-399.907,192.377C1118.255,369,961.3,350.122,812.309,388.23c-186.3,47.652-342.027,181.937-448.078,342.333C287.733,846.23,229.593,980.985,116,1060.524a326.932,326.932,0,0,1-56.914,31.862H41.6a333.27,333.27,0,0,0,74.377-38.956c113.593-79.538,171.732-214.294,248.207-329.96,106.075-160.4,261.781-294.681,448.078-342.333,149.014-38.108,305.969-19.231,459.414-29.671,153.468-10.44,319.544-61.25,399.907-192.377C1689.918,129.159,1702.62,96.943,1711.081,63.36Z" transform="translate(56.438 85.96)" fill="url(#linear-gradient-12)"/>
      </g>
      <g id="Group_2594" data-name="Group 2594">
        <path id="Path_8621" data-name="Path 8621" d="M1462.752,0q-1.8,5.02-3.818,9.969c-57.762,142.58-213.233,219.95-362.86,255.465-149.674,35.515-307.6,42.7-448.314,104.755C471.833,447.819,340.283,605.858,262.041,781.5c-56.466,126.672-91.675,269.134-190.656,366.253a320.4,320.4,0,0,1-36.128,30.59H0V0Z" fill="#f7fbfc"/>
        <path id="Path_8622" data-name="Path 8622" d="M1462.752,0q-1.8,5.02-3.818,9.969c-57.762,142.58-213.233,219.95-362.86,255.465-149.674,35.515-307.6,42.7-448.314,104.755C471.833,447.819,340.283,605.858,262.041,781.5c-56.466,126.672-91.675,269.134-190.656,366.253a320.4,320.4,0,0,1-36.128,30.59H0V0Z" opacity="0.5" fill="url(#linear-gradient-13)" style="mix-blend-mode: multiply;isolation: isolate"/>
        <path id="Path_8623" data-name="Path 8623" d="M1448.845,0q-1.8,5.02-3.818,9.969c-57.763,142.58-213.233,219.95-362.86,255.465-149.674,35.515-307.6,42.7-448.314,104.755C457.927,447.819,326.377,605.858,248.135,781.5c-56.466,126.672-91.675,269.134-190.656,366.253a320.4,320.4,0,0,1-36.128,30.59H10.25A329.192,329.192,0,0,0,56.3,1140.78c98.981-97.119,134.19-239.6,190.609-366.277C325.2,598.859,456.725,440.819,632.652,363.213c140.718-62.075,298.64-69.24,448.29-104.755,149.673-35.515,305.144-112.933,362.86-255.489.4-.99.8-1.98,1.178-2.969Z" transform="translate(13.906)" fill="url(#linear-gradient-14)"/>
      </g>
      <g id="Group_2595" data-name="Group 2595">
        <path id="Path_8624" data-name="Path 8624" d="M792.673,42.892C780.112,161.9,680.471,253.179,576.188,311.908,471.88,370.613,355.318,409.9,263.431,486.563,148.519,582.386,84.11,728.854,63.3,877.019,49,978.781,52.224,1087.142,6.646,1178.346H0V132.423L277.83,0h515.6A251.08,251.08,0,0,1,792.673,42.892Z" fill="#f7fbfc"/>
        <path id="Path_8625" data-name="Path 8625" d="M792.673,42.892C780.112,161.9,680.471,253.179,576.188,311.908,471.88,370.613,355.318,409.9,263.431,486.563,148.519,582.386,84.11,728.854,63.3,877.019,49,978.781,52.224,1087.142,6.646,1178.346H0V132.423L277.83,0h515.6A251.08,251.08,0,0,1,792.673,42.892Z" opacity="0.5" fill="url(#linear-gradient-15)" style="mix-blend-mode: multiply;isolation: isolate"/>
        <path id="Path_8626" data-name="Path 8626" d="M790.883,42.892C778.321,161.9,678.68,253.179,574.4,311.908,470.09,370.613,353.528,409.9,261.64,486.563,146.728,582.386,82.32,728.854,61.51,877.019,47.2,978.781,50.433,1087.142,4.855,1178.346H1.32c46.9-91.7,43.5-201.073,57.927-303.754C80.034,726.4,144.465,579.958,259.354,484.112c91.911-76.663,208.473-115.926,312.757-174.654C676.418,250.752,776.059,159.477,788.6,40.464A249.99,249.99,0,0,0,789.516,0h2.121A251.074,251.074,0,0,1,790.883,42.892Z" transform="translate(1.791)" fill="url(#linear-gradient-16)"/>
      </g>
      <g id="Group_2596" data-name="Group 2596">
        <path id="Path_8627" data-name="Path 8627" d="M778.3,0C735.641,56.726,673.731,102.351,610.407,136.217c-105.533,56.419-222.92,93.16-316.48,167.82C176.964,397.338,109.4,542.369,85.383,690.063c-17.322,106.5-15.531,220.681-70.7,313.393A252.229,252.229,0,0,1,0,1025.4V0Z" fill="#f7fbfc"/>
        <path id="Path_8628" data-name="Path 8628" d="M778.3,0C735.641,56.726,673.731,102.351,610.407,136.217c-105.533,56.419-222.92,93.16-316.48,167.82C176.964,397.338,109.4,542.369,85.383,690.063c-17.322,106.5-15.531,220.681-70.7,313.393A252.229,252.229,0,0,1,0,1025.4V0Z" opacity="0.5" fill="url(#linear-gradient-17)" style="mix-blend-mode: multiply;isolation: isolate"/>
        <path id="Path_8629" data-name="Path 8629" d="M778.3,0C735.641,56.726,673.731,102.351,610.407,136.217c-105.533,56.419-222.92,93.16-316.48,167.82C176.964,397.338,109.4,542.369,85.383,690.063c-17.322,106.5-15.531,220.681-70.7,313.393A252.229,252.229,0,0,1,0,1025.4v-5.468q6.646-9.156,12.467-18.948c55.17-92.712,53.379-206.918,70.7-313.417,24.015-147.67,91.581-292.7,208.544-386.026,93.561-74.636,210.947-111.377,316.48-167.82C670.6,100.372,731.612,55.571,774.22,0Z" fill="url(#linear-gradient-18)"/>
      </g>
      <g id="Group_2597" data-name="Group 2597">
        <path id="Path_8630" data-name="Path 8630" d="M569.165,0C526.509,56.726,464.6,102.351,401.274,136.217c-105.533,56.419-222.92,93.16-316.48,167.82A499.685,499.685,0,0,0,0,390.928V0Z" fill="#f7fbfc"/>
        <path id="Path_8631" data-name="Path 8631" d="M569.165,0C526.509,56.726,464.6,102.351,401.274,136.217c-105.533,56.419-222.92,93.16-316.48,167.82A499.685,499.685,0,0,0,0,390.928V0Z" opacity="0.5" fill="url(#linear-gradient-19)" style="mix-blend-mode: multiply;isolation: isolate"/>
        <path id="Path_8632" data-name="Path 8632" d="M569.165,0C526.509,56.726,464.6,102.351,401.274,136.217c-105.533,56.419-222.92,93.16-316.48,167.82A499.685,499.685,0,0,0,0,390.928v-5.35a499.217,499.217,0,0,1,82.578-84.04c93.561-74.636,210.948-111.377,316.48-167.82C461.464,100.372,522.479,55.571,565.088,0Z" fill="url(#linear-gradient-20)"/>
      </g>
    </g>
  </g>
  <rect id="Rectangle_1982" data-name="Rectangle 1982" width="1366" height="768" fill="#f6f9fb" opacity="0.7"/>
</svg>
